<svg version="1.1" xmlns="http://www.w3.org/2000/svg" xmlns:xlink="http://www.w3.org/1999/xlink" width="360.000000pt" height="360.000000pt" viewBox="0,0,256,256"><g fill="#15eaff" fill-rule="nonzero" stroke="none" stroke-width="1" stroke-linecap="butt" stroke-linejoin="miter" stroke-miterlimit="10" stroke-dasharray="" stroke-dashoffset="0" font-family="none" font-weight="none" font-size="none" text-anchor="none" style="mix-blend-mode: normal"><g transform="translate(0.17778,0.39804) scale(0.71111,0.71111)"><g transform="translate(0,360) scale(0.1,-0.1)"><path d="M1150,2790c0,-45 4,-60 14,-60c17,0 26,22 26,60c0,38 -9,60 -26,60c-10,0 -14,-15 -14,-60z"></path><path d="M864,2719c-3,-6 12,-30 35,-52c32,-33 43,-39 53,-29c9,9 4,21 -27,52c-42,43 -50,46 -61,29z"></path><path d="M1407,2692c-31,-32 -35,-41 -24,-50c11,-9 21,-4 50,25c38,37 47,63 24,63c-7,0 -30,-17 -50,-38z"></path><path d="M1106,2628c-60,-17 -131,-92 -144,-154c-19,-88 12,-167 87,-219c38,-27 51,-30 115,-30c63,0 78,4 115,28c101,67 127,190 61,289c-50,76 -145,111 -234,86z"></path><path d="M745,2440c-12,-20 7,-30 61,-30c47,0 55,3 52,18c-2,13 -15,18 -55,20c-28,2 -54,-2 -58,-8z"></path><path d="M1477,2444c-4,-4 -7,-13 -7,-21c0,-9 17,-13 61,-13c52,0 60,2 57,18c-2,13 -15,18 -53,20c-28,2 -54,0 -58,-4z"></path><path d="M891,2186c-22,-22 -31,-40 -27,-51c4,-12 10,-13 23,-6c31,16 75,69 69,80c-12,19 -31,12 -65,-23z"></path><path d="M1380,2201c0,-22 67,-84 81,-76c17,11 9,31 -24,63c-37,36 -57,41 -57,13z"></path><path d="M1717,2101c-82,-88 -110,-136 -137,-236c-27,-99 -48,-136 -145,-250c-88,-105 -136,-196 -164,-317c-22,-92 -75,-239 -108,-298c-11,-19 -43,-79 -72,-133l-53,-97l84,-1c308,-4 1195,4 1298,11c69,5 189,10 266,10h141l6,39c9,69 -9,195 -37,249c-41,80 -120,168 -220,241c-111,82 -143,120 -231,271c-116,198 -160,244 -340,349c-112,65 -149,100 -186,174c-16,31 -31,57 -33,57c-2,0 -33,-31 -69,-69z"></path><path d="M1150,2069c0,-52 2,-60 18,-57c31,6 28,118 -3,118c-12,0 -15,-14 -15,-61z"></path><path d="M1065,1826c-114,-156 -163,-232 -225,-351c-87,-168 -117,-210 -231,-322c-128,-126 -148,-164 -151,-293l-3,-95l235,-3c129,-2 249,0 265,3c27,5 38,19 97,128c106,193 133,260 193,477c14,53 41,120 61,153l36,58l-35,72c-32,68 -136,219 -168,243c-11,9 -26,-5 -74,-70z"></path><path d="M2431,1804c-50,-53 -91,-101 -91,-106c0,-13 99,-180 138,-234c17,-23 66,-66 109,-97c100,-70 198,-174 240,-252c37,-71 55,-160 52,-259l-2,-71l29,-6c30,-7 234,-12 234,-6c0,17 -167,384 -200,440c-24,40 -54,91 -67,114c-13,23 -35,88 -49,144c-14,57 -37,125 -50,152c-20,39 -220,263 -245,275c-4,1 -47,-41 -98,-94z"></path></g></g></g></svg>
